<svg width="150" height="150" viewBox="0 0 150 150" fill="none" xmlns="http://www.w3.org/2000/svg">
<rect width="78" height="150" fill="#FAEADE"/>
<rect x="78" width="72" height="150" fill="#34789F"/>
<path d="M57 35.5L119.5 35L88.5 76.5L57 35.5Z" fill="#FF9CDE" stroke="#FF9CDE" stroke-width="3"/>
<path d="M75.5 74L41 29.5H109.5L77 73L75 73.5" stroke="#030909" stroke-width="3"/>
<path d="M38.5 28.5L74.5 74.5H77.5L112 28.5H38.5Z" stroke="#030909"/>
<rect x="63" y="116" width="26" height="3" fill="#030909"/>
<rect x="74" y="74" width="4" height="42" fill="#030909"/>
<path d="M42.0479 136.078C41.5628 136.078 41.1055 135.985 40.6758 135.8C40.2493 135.614 39.8734 135.354 39.5479 135.019C39.2223 134.683 38.9668 134.293 38.7812 133.847C38.599 133.401 38.5078 132.917 38.5078 132.396C38.5078 131.856 38.6038 131.363 38.7959 130.917C38.988 130.468 39.25 130.08 39.582 129.755C39.9173 129.426 40.2998 129.172 40.7295 128.993C41.1592 128.814 41.6117 128.725 42.0869 128.725C42.5003 128.725 42.8991 128.79 43.2832 128.92C43.6706 129.047 44.0026 129.218 44.2793 129.433L44.0352 130.014C43.804 129.786 43.5127 129.612 43.1611 129.491C42.8096 129.368 42.4548 129.306 42.0967 129.306C41.7158 129.306 41.3496 129.381 40.998 129.53C40.6465 129.677 40.3307 129.887 40.0508 130.16C39.7708 130.434 39.5495 130.759 39.3867 131.137C39.224 131.511 39.1426 131.929 39.1426 132.392C39.1426 132.841 39.2207 133.256 39.377 133.637C39.5365 134.014 39.7529 134.343 40.0264 134.623C40.3031 134.9 40.6172 135.115 40.9688 135.268C41.3203 135.421 41.6898 135.497 42.0771 135.497C42.3441 135.497 42.6045 135.463 42.8584 135.395C43.1156 135.323 43.3467 135.229 43.5518 135.111C43.7601 134.991 43.9277 134.861 44.0547 134.721L44.2988 135.292C44.0189 135.533 43.6771 135.725 43.2734 135.868C42.873 136.008 42.4645 136.078 42.0479 136.078ZM47.1977 136V128.803H47.8324V132.021H51.8217V128.803H52.4564V136H51.8217V132.606H47.8324V136H47.1977ZM55.9363 136V128.803H56.576V136H55.9363ZM60.0656 136V128.803H60.7004V135.419H63.8889V136H60.0656ZM66.6168 136V128.803H67.2516V135.419H70.44V136H66.6168Z" fill="#34789F"/>
<path d="M84.9082 136V128.803H85.543V132.021H89.5322V128.803H90.167V136H89.5322V132.606H85.543V136H84.9082ZM96.4742 136.078C95.9794 136.078 95.5188 135.987 95.0924 135.805C94.6692 135.619 94.2997 135.36 93.984 135.028C93.6682 134.696 93.4225 134.307 93.2467 133.861C93.0742 133.412 92.9879 132.924 92.9879 132.396C92.9879 131.872 93.0742 131.387 93.2467 130.941C93.4225 130.495 93.6666 130.106 93.9791 129.774C94.2949 129.442 94.6627 129.185 95.0826 129.003C95.5058 128.817 95.9648 128.725 96.4596 128.725C96.9609 128.725 97.4247 128.817 97.8512 129.003C98.2776 129.185 98.6487 129.442 98.9645 129.774C99.2802 130.106 99.526 130.497 99.7018 130.946C99.8775 131.392 99.9654 131.877 99.9654 132.401C99.9654 132.929 99.8775 133.415 99.7018 133.861C99.526 134.307 99.2802 134.696 98.9645 135.028C98.6487 135.36 98.2792 135.619 97.8561 135.805C97.4329 135.987 96.9723 136.078 96.4742 136.078ZM96.4596 135.497C96.8697 135.497 97.249 135.421 97.5973 135.268C97.9488 135.111 98.2532 134.893 98.5104 134.613C98.7708 134.333 98.9726 134.006 99.1158 133.632C99.259 133.254 99.3307 132.842 99.3307 132.396C99.3307 131.947 99.2574 131.535 99.1109 131.161C98.9645 130.784 98.761 130.456 98.5006 130.18C98.2434 129.903 97.9407 129.688 97.5924 129.535C97.2441 129.382 96.8665 129.306 96.4596 129.306C96.0624 129.306 95.6913 129.382 95.3463 129.535C95.0045 129.688 94.7034 129.903 94.443 130.18C94.1858 130.456 93.984 130.784 93.8375 131.161C93.6943 131.535 93.6227 131.947 93.6227 132.396C93.6227 132.842 93.6943 133.254 93.8375 133.632C93.9807 134.009 94.1809 134.338 94.4381 134.618C94.6952 134.895 94.9964 135.111 95.3414 135.268C95.6865 135.421 96.0592 135.497 96.4596 135.497ZM105.272 136.078C104.774 136.078 104.337 135.976 103.963 135.771C103.592 135.562 103.302 135.269 103.094 134.892C102.889 134.514 102.786 134.071 102.786 133.563V128.803H103.421V133.529C103.421 133.926 103.498 134.273 103.651 134.569C103.807 134.862 104.023 135.09 104.3 135.253C104.577 135.416 104.901 135.497 105.272 135.497C105.838 135.497 106.287 135.318 106.619 134.96C106.951 134.599 107.117 134.122 107.117 133.529V128.803H107.752V133.563C107.752 134.071 107.651 134.514 107.449 134.892C107.248 135.269 106.96 135.562 106.585 135.771C106.214 135.976 105.776 136.078 105.272 136.078ZM112.746 136.078C112.368 136.078 112.028 136.003 111.725 135.854C111.426 135.704 111.172 135.512 110.964 135.277C110.755 135.043 110.604 134.799 110.51 134.545L111.11 134.291C111.188 134.519 111.307 134.724 111.467 134.906C111.626 135.085 111.817 135.229 112.038 135.336C112.259 135.44 112.5 135.492 112.761 135.492C113.024 135.492 113.268 135.435 113.493 135.321C113.718 135.207 113.898 135.049 114.035 134.848C114.175 134.643 114.245 134.405 114.245 134.135C114.245 133.878 114.183 133.658 114.059 133.476C113.936 133.29 113.783 133.137 113.6 133.017C113.421 132.896 113.239 132.799 113.054 132.724C112.868 132.649 112.712 132.587 112.585 132.538C112.253 132.414 111.945 132.265 111.662 132.089C111.382 131.913 111.156 131.695 110.983 131.435C110.811 131.174 110.724 130.857 110.724 130.482C110.724 130.131 110.804 129.823 110.964 129.56C111.123 129.296 111.346 129.091 111.633 128.944C111.919 128.798 112.253 128.725 112.634 128.725C112.988 128.725 113.298 128.783 113.561 128.9C113.825 129.018 114.045 129.169 114.221 129.354C114.396 129.54 114.531 129.735 114.626 129.94L114.064 130.165C113.996 130.038 113.898 129.91 113.771 129.779C113.648 129.646 113.491 129.535 113.303 129.447C113.114 129.356 112.892 129.311 112.638 129.311C112.274 129.311 111.968 129.416 111.721 129.628C111.473 129.836 111.349 130.123 111.349 130.487C111.349 130.712 111.395 130.907 111.486 131.073C111.577 131.236 111.694 131.376 111.838 131.493C111.984 131.607 112.139 131.705 112.302 131.786C112.468 131.868 112.624 131.936 112.77 131.991C112.927 132.047 113.122 132.121 113.356 132.216C113.591 132.31 113.823 132.436 114.054 132.592C114.286 132.748 114.478 132.95 114.631 133.197C114.787 133.441 114.865 133.746 114.865 134.11C114.865 134.511 114.764 134.859 114.562 135.155C114.364 135.448 114.103 135.676 113.781 135.839C113.462 135.998 113.117 136.078 112.746 136.078ZM117.774 136V128.803H121.621V129.384H118.409V132.035H121.138V132.616H118.409V135.419H121.621V136H117.774Z" fill="#FAEADE"/>
</svg>
