<svg width="1024" height="677" viewBox="0 0 1024 677" fill="none" xmlns="http://www.w3.org/2000/svg">
<g clip-path="url(#clip0_631_153)">
<mask id="mask0_631_153" style="mask-type:luminance" maskUnits="userSpaceOnUse" x="0" y="0" width="1024" height="677">
<path d="M984 0H40C17.9086 0 0 17.9086 0 40V637C0 659.091 17.9086 677 40 677H984C1006.09 677 1024 659.091 1024 637V40C1024 17.9086 1006.09 0 984 0Z" fill="white"/>
</mask>
<g mask="url(#mask0_631_153)">
<path d="M984 0H40C17.9086 0 0 17.9086 0 40V637C0 659.091 17.9086 677 40 677H984C1006.09 677 1024 659.091 1024 637V40C1024 17.9086 1006.09 0 984 0Z" fill="url(#paint0_radial_631_153)"/>
<path d="M984 0H40C17.9086 0 0 17.9086 0 40V637C0 659.091 17.9086 677 40 677H984C1006.09 677 1024 659.091 1024 637V40C1024 17.9086 1006.09 0 984 0Z" fill="#3284C6"/>
<g filter="url(#filter0_f_631_153)">
<path d="M925.929 0.728689L331.271 -158.609L100.198 703.767L694.856 863.105L925.929 0.728689Z" fill="#AED5F5"/>
</g>
<mask id="mask1_631_153" style="mask-type:luminance" maskUnits="userSpaceOnUse" x="-169" y="-206" width="1303" height="1131">
<path d="M1133.3 -205.117H-168.695V924.883H1133.3V-205.117Z" fill="white"/>
</mask>
<g mask="url(#mask1_631_153)">
<g opacity="0.15">
<path d="M234.779 -194.253C232.609 -181.794 232.753 -181.939 213.947 -172.522C203.386 -167.162 202.084 -166.003 198.323 -158.904C195.574 -153.689 193.838 -147.025 192.825 -139.347C190.511 -120.658 188.919 -114.284 184.869 -107.765C181.107 -101.97 180.963 -100.521 180.818 -82.7021C180.673 -65.3175 180.384 -63.2893 176.912 -57.2047C174.163 -52.279 172.861 -47.3534 172.138 -38.3713C171.559 -31.7072 170.547 -25.6226 169.823 -24.8983C167.364 -22.4355 168.087 27.2556 170.547 36.0927C173.44 45.7992 176.478 47.8274 189.353 48.6966C194.995 49.1312 200.782 50.2902 202.373 51.1594C206.279 53.6222 217.853 48.6966 221.325 43.0466C222.771 40.8735 226.099 35.5133 228.703 31.312C231.451 27.1107 234.2 20.5915 234.923 16.8248C239.263 -6.06491 241.289 -10.2662 252.573 -17.2201C258.504 -21.1316 259.083 -22.0008 262.265 -33.5906C265.448 -44.8906 266.027 -46.0496 269.788 -46.7739C276.877 -48.2226 279.77 -52.7137 281.217 -65.897C281.94 -72.4162 282.953 -78.356 283.531 -79.2252C283.965 -80.0944 284.833 -84.1508 285.557 -88.2072C289.173 -111.966 292.067 -125.584 295.105 -131.958C296.985 -136.015 299.155 -143.693 299.879 -149.053C300.602 -154.268 301.615 -159.194 302.049 -160.063C303.206 -161.802 298.287 -172.667 293.658 -178.897C290.765 -182.808 289.897 -185.706 289.897 -191.211C289.897 -206.133 291.777 -205.118 262.41 -205.118H236.804L234.779 -194.253Z" fill="#FAEADE"/>
<path d="M807.369 -167.455C805.343 -165.861 801.582 -164.557 798.689 -164.557C793.191 -164.557 789.285 -161.515 782.341 -151.519C777.857 -144.855 773.661 -142.247 760.786 -137.756C751.961 -134.569 741.979 -124.863 740.677 -117.909C739.665 -112.838 735.759 -99.075 733.878 -94.2943C728.091 -79.0827 726.645 -65.7545 730.406 -60.8289C731.708 -59.0904 732.576 -54.4545 732.576 -47.2109C732.576 -34.8968 733.155 -33.593 738.652 -32.1443C741.111 -31.5648 743.571 -29.3917 745.017 -26.784C747.187 -22.293 748.2 -22.1481 754.71 -24.7558C756.88 -25.625 757.169 -24.7558 757.169 -15.6289C757.169 -4.32886 758.761 1.17627 763.245 5.95705C767.441 10.448 768.743 10.1583 775.831 3.49422C779.159 0.307037 783.209 -2.30066 784.801 -2.30066C790.877 -2.30066 798.978 -8.53014 802.45 -16.0635C808.237 -28.3776 809.683 -33.0135 810.696 -45.0379C811.709 -55.4686 816.483 -77.0545 818.653 -80.6763C819.231 -81.4007 820.099 -85.0225 820.823 -88.934C824.005 -106.174 825.597 -111.1 831.962 -123.993C838.761 -137.466 838.761 -138.046 838.472 -149.925C838.038 -161.95 836.013 -167.6 831.239 -169.628C828.49 -170.642 824.005 -168.034 822.993 -164.557C821.835 -160.936 816.483 -160.646 816.483 -164.268C816.483 -166.875 813.879 -170.352 811.998 -170.352C811.564 -170.352 809.394 -169.048 807.369 -167.455Z" fill="#FAEADE"/>
<path d="M50.3293 -137.899C48.4486 -136.45 46.7126 -136.305 43.6746 -137.32C41.3599 -138.189 36.8753 -138.334 33.4033 -137.899C30.0759 -137.32 24.1446 -136.74 20.2386 -136.45C15.7539 -136.161 12.4266 -135.002 11.4139 -133.553C10.4013 -132.249 7.79723 -131.235 5.48257 -131.235C-0.0147629 -131.235 -5.80143 -127.903 -17.6641 -118.196C-33.1434 -105.303 -37.0494 -101.246 -37.0494 -98.2037C-37.0494 -96.4652 -37.6281 -94.7267 -38.4961 -94.2921C-39.3641 -93.8575 -39.9427 -91.3947 -39.9427 -89.0767C-39.9427 -84.4408 -45.0061 -73.2857 -47.1761 -73.2857C-49.0567 -73.2857 -49.7801 -69.9537 -51.5161 -54.4524C-52.8181 -42.5729 -53.6861 -40.1101 -57.1581 -36.3434C-64.1021 -28.8101 -65.9827 -24.464 -66.9954 -13.5985C-67.4294 -7.80373 -69.3101 0.309097 -71.1907 4.36551C-74.5181 12.0437 -74.6627 18.2733 -72.0587 33.0502C-70.7567 40.004 -70.0334 40.8733 -62.6554 44.9297C-59.4727 46.6681 -58.7494 47.972 -58.7494 52.7527C-58.7494 55.795 -59.4727 58.8374 -60.1961 59.272C-60.9194 59.7066 -61.6427 61.3002 -61.6427 62.7489C-61.6427 64.1976 -62.9447 67.095 -64.5361 69.1232C-68.7314 74.3385 -68.1527 79.6989 -63.0894 84.9142C-60.0514 87.8116 -58.7494 90.5643 -58.7494 93.7514C-58.7494 99.4014 -57.3027 101.719 -52.8181 104.037C-50.3587 105.196 -49.0567 107.369 -48.6227 110.846C-47.4654 118.814 -36.3261 132.432 -30.8287 132.432C-28.9481 132.432 -25.1867 134.17 -22.4381 136.198C-17.9534 139.675 -16.6514 139.82 -7.10343 139.241C7.94189 138.082 8.37589 138.661 7.5079 156.48C6.92924 165.607 5.91657 172.416 4.32524 175.169C3.02324 177.487 2.01057 180.239 2.01057 181.109C2.01057 181.833 0.563904 185.455 -1.1721 189.077C-3.92077 194.437 -4.49943 198.928 -5.22277 216.892C-5.80143 230.22 -6.81409 238.912 -7.82677 239.927C-10.7201 242.824 -9.8521 250.502 -6.23543 253.834C-4.35477 255.573 -1.89543 257.021 -0.593437 257.021C0.563896 257.021 4.18056 259.05 7.21857 261.512C10.9799 264.41 13.7286 265.569 15.7539 264.989C17.3453 264.555 20.6726 263.83 23.1319 263.251C27.7613 262.527 27.7613 262.527 30.0759 270.929C34.5606 287.01 33.8373 286.286 49.7506 288.748C56.8393 289.907 58.1413 289.762 61.0346 287.01C62.7706 285.416 64.2173 283.243 64.2173 282.229C64.2173 281.215 65.8086 278.462 67.8339 276.145C69.8593 273.827 73.3313 268.177 75.7906 263.541C80.4199 254.848 85.3386 247.025 87.9426 244.707C90.6913 242.245 95.4653 234.856 98.9373 228.047C100.673 224.425 103.567 219.934 105.303 217.906C110.366 212.256 115.14 199.362 116.008 189.366C116.876 178.646 113.404 164.448 108.341 157.784C105.447 154.018 101.975 143.442 96.1886 121.132C94.5973 115.482 91.1253 111.28 85.6279 108.383C75.7906 103.312 75.0673 97.6629 81.1433 72.3103C86.0619 51.4489 87.3639 20.7361 83.6026 13.3475C82.3006 10.7399 75.6459 3.06168 68.7019 -3.60243L56.2606 -15.7717L55.8266 -26.0575C55.2479 -37.6473 57.8519 -43.8767 67.1106 -54.0178C79.8413 -67.6357 85.9173 -82.4127 85.9173 -99.0729C85.9173 -108.345 85.1939 -111.387 82.3006 -116.603C80.2753 -119.935 78.6839 -123.991 78.6839 -125.44C78.6839 -126.889 75.9353 -130.221 72.6079 -132.973C65.3746 -138.768 54.8139 -141.086 50.3293 -137.899Z" fill="#FAEADE"/>
<path d="M907.624 -85.6004C905.598 -84.4414 902.705 -82.9927 901.114 -82.1234C897.208 -80.385 892.723 -75.6042 884.911 -65.3183C876.81 -54.5978 874.206 -49.3824 873.627 -43.7324C872.036 -28.0863 869.577 -18.6696 865.96 -14.1786C858.148 -4.32732 858.148 -4.4722 860.029 -0.270912C861.475 2.91628 861.331 3.93037 859.161 6.3932C857.714 7.98679 855.399 9.29063 853.953 9.29063C852.072 9.29063 849.757 12.1881 846.719 18.2727C840.354 30.8766 836.737 35.3676 832.976 35.3676C831.24 35.3676 826.466 37.106 822.415 39.1343C817.063 41.8868 815.037 43.915 815.037 46.0881C815.037 53.4766 811.855 60.2855 807.081 63.0381C804.477 64.6317 801.873 67.3843 801.294 69.1227C800.137 72.3099 800.137 72.3099 799.558 68.833C799.124 66.6599 799.703 64.6317 801.005 63.6176C803.753 61.5894 809.251 52.6073 809.251 49.9996C809.251 48.1163 814.314 37.106 820.245 26.2407C821.403 24.0676 822.994 18.9971 823.573 14.9407C824.296 10.8843 825.453 6.97268 826.466 5.95857C827.334 5.08934 828.057 0.163712 828.057 -4.76193C828.057 -15.917 825.309 -21.1324 819.522 -21.1324C816.339 -21.1324 814.893 -19.9734 812.433 -14.7581C810.697 -11.2811 809.251 -7.5145 809.251 -6.21066C809.251 -4.90681 806.936 -2.15424 804.332 -0.126038C798.835 4.07524 793.916 12.9125 792.469 20.8804C790.733 31.456 786.827 43.0458 783.934 46.0881C778.581 51.883 776.411 56.2291 775.399 63.3278C774.531 69.4125 773.952 70.1368 771.493 69.4125C767.587 68.1086 763.391 73.6137 762.089 81.4368C761.655 84.7689 760.643 87.956 759.919 88.3907C759.196 88.8253 758.617 93.0266 758.617 97.6625C758.617 104.761 759.051 106.5 761.511 107.803C763.681 108.962 765.127 108.817 767.442 107.369C771.203 104.616 775.977 95.1996 775.977 90.4189C775.977 85.2035 777.135 84.3342 781.185 87.0868C785.67 89.9842 787.985 88.9701 791.457 82.306C796.231 72.8894 797.533 74.483 797.099 89.5496C796.809 100.56 797.243 104.616 799.413 109.397C801.149 113.309 802.017 118.814 802.017 125.333C802.017 130.693 802.741 135.619 803.464 136.053C804.332 136.488 804.911 138.951 804.911 141.414C804.911 143.876 806.357 148.078 807.949 150.83C810.842 155.466 810.987 156.625 809.54 167.635C808.383 176.617 808.527 183.282 809.974 194.726C811.131 203.129 811.999 210.083 811.999 210.228C812.144 210.517 814.314 213.125 817.063 216.023C820.969 220.369 822.126 223.266 822.994 230.075C824.875 245.721 833.699 249.053 838.618 236.015C840.065 231.958 841.656 227.178 842.09 225.15C842.524 223.121 844.115 219.934 845.562 218.051C847.009 216.167 850.915 206.171 854.097 195.596C857.425 185.165 860.607 175.459 861.475 174.155C862.199 172.706 862.777 169.664 862.777 167.491C862.777 162.565 869.287 153.003 875.508 148.512C877.823 146.919 880.282 143.732 880.716 141.703C881.294 139.53 882.741 136.923 883.754 135.764C884.911 134.605 885.924 132.432 885.924 130.983C885.924 125.767 896.195 125.478 898.076 130.693C901.114 139.241 901.548 141.848 900.39 148.802C898.654 159.957 896.774 166.621 891.71 179.515C885.634 195.161 884.477 197.479 879.993 203.419C875.797 209.069 868.998 227.757 866.973 238.623C866.394 242.389 863.79 249.633 861.475 254.414C856.701 263.975 855.978 269.046 858.727 275.42C859.739 277.593 860.897 288.603 861.331 299.758L862.054 320.185L867.117 326.56C872.036 332.789 872.036 333.079 872.181 346.987C872.181 360.46 873.772 365.675 877.533 365.675C879.848 365.675 893.012 352.492 894.025 349.16C895.038 345.538 903.284 332.065 905.309 330.616C908.492 328.443 908.492 331.485 905.309 344.089C900.969 360.605 898.51 365.675 892.289 371.325C887.66 375.671 887.37 376.396 887.37 385.957C887.37 391.462 886.792 396.243 886.068 396.678C885.49 397.112 884.477 404.356 883.898 412.758C883.32 421.161 882.307 429.708 881.439 431.882C879.269 437.532 878.98 476.357 881.15 478.82C882.018 479.979 883.175 484.76 883.754 489.541C885.2 501.71 887.804 506.201 893.302 506.201C899.956 506.201 902.126 512.865 902.126 533.726C902.126 546.475 902.705 551.256 904.441 554.298C907.479 559.658 909.36 559.369 913.7 553.139C918.04 547.055 920.21 548.793 917.75 556.326C915.002 564.584 916.448 586.46 920.065 590.371C922.235 592.689 923.103 597.035 924.26 608.77C925.562 622.243 925.996 624.271 928.311 624.271C930.192 624.271 931.928 621.519 934.676 613.406C936.846 607.032 940.318 600.367 943.212 597.18C948.275 591.53 953.049 582.693 954.64 576.029C955.219 573.856 957.389 568.785 959.414 564.874C963.754 556.761 967.66 555.167 973.447 558.934C975.328 560.238 979.523 561.252 982.561 561.252C987.48 561.252 989.071 560.383 993.556 555.457C996.449 552.27 998.764 548.793 998.764 547.634C998.764 546.475 999.487 545.316 1000.21 545.026C1001.8 544.592 1007.44 523.73 1007.44 518.515C1007.44 516.921 1009.32 510.547 1011.78 504.462C1014.53 497.074 1016.27 489.541 1016.85 482.007C1018.15 462.015 1019.16 454.916 1021.19 448.252C1023.65 440.719 1029.14 416.235 1029.87 409.861C1030.16 407.398 1031.31 402.907 1032.18 399.575C1033.63 394.794 1033.63 391.607 1031.89 382.915C1030.45 374.947 1030.16 369.007 1031.17 359.591C1032.76 343.655 1029.29 310.044 1025.53 304.25C1023.21 300.773 1022.2 300.483 1013.09 300.483C1001.66 300.483 1001.08 299.758 1001.95 286.575C1002.38 279.766 1002.53 279.476 1007.01 279.042C1013.23 278.462 1017.28 273.102 1024.08 256.442C1028.85 244.852 1029.29 242.679 1028.85 232.538C1028.57 226.453 1027.41 218.485 1026.25 214.719C1024.37 208.489 1024.51 207.185 1027.12 199.652C1030.45 189.656 1033.77 186.903 1037.53 191.105C1039.85 193.712 1040.14 195.885 1039.13 213.56C1038.69 224.28 1037.53 235.725 1036.67 238.912C1035.8 242.1 1034.79 251.516 1034.5 259.919C1034.06 268.321 1033.05 277.448 1032.18 280.201C1029.58 288.458 1030.16 291.646 1034.21 292.66C1036.23 293.094 1038.69 295.267 1039.7 297.441C1041.01 300.193 1042.45 301.062 1045.06 300.773C1049.83 300.193 1050.84 298.165 1050.55 288.893C1050.27 282.374 1051.13 279.187 1055.04 271.508C1059.67 262.526 1059.81 261.367 1059.67 247.605C1059.38 237.753 1058.66 232.103 1057.21 229.93C1053.45 223.991 1055.47 209.069 1061.4 200.376C1063 197.914 1064.15 192.988 1064.44 186.614C1064.73 181.109 1065.74 174.589 1066.61 171.982C1068.64 166.766 1067.19 162.42 1062.42 159.957C1060.1 158.798 1059.52 156.915 1059.52 151.7C1059.52 146.339 1060.39 144.166 1064.01 139.965C1068.35 135.039 1068.49 134.605 1067.63 123.884C1066.18 105.051 1066.03 103.602 1064.15 101.719C1061.26 98.8214 1046.36 99.4008 1041.59 102.443C1036.52 105.775 1035.65 108.528 1037.25 114.902C1039.13 121.711 1038.26 125.188 1034.79 125.188C1031.46 125.188 1029.87 119.973 1031.02 111.86C1032.04 104.182 1029 99.1112 1023.36 99.1112C1021.19 99.1112 1018.58 100.125 1017.57 101.284C1016.56 102.443 1014.68 103.457 1013.38 103.457C1012.07 103.457 1009.18 104.471 1006.87 105.63C1004.7 106.789 1002.24 107.514 1001.66 107.079C1000.93 106.644 999.342 103.023 998.04 99.1112C996.738 95.1996 995.002 91.5778 994.279 91.1432C993.556 90.5637 992.977 78.1048 992.977 63.0381C992.977 37.6855 992.832 35.5125 989.939 31.8907C987.769 29.1381 986.178 28.2689 983.574 28.9932C981.838 29.4278 979.957 29.1381 979.378 28.4137C978.944 27.6894 975.038 28.8484 970.264 31.1663C965.635 33.4843 961.295 35.3676 960.427 35.3676C959.704 35.5125 957.678 37.2509 956.087 39.2791C947.841 49.8548 944.224 53.1868 941.765 52.3176C939.45 51.4484 939.161 49.4201 939.595 35.6573C939.74 27.1099 939.161 17.5484 938.293 14.3612C937.425 11.174 936.412 6.97269 935.978 4.94447C935.544 2.91628 931.928 -2.58885 927.877 -7.36962C923.971 -12.0055 920.644 -17.3657 920.644 -19.2491C920.644 -20.9875 922.958 -27.5068 925.852 -33.7363L931.06 -45.0363L930.047 -61.6965C928.89 -82.8478 926.43 -87.7734 917.316 -87.7734C913.989 -87.7734 909.649 -86.7593 907.624 -85.6004Z" fill="#FAEADE"/>
<path d="M681.654 -67.778C679.484 -66.3293 675.868 -61.9831 673.842 -57.9267C671.672 -54.0152 669.068 -49.2344 668.056 -47.2062C666.898 -45.178 666.03 -41.1216 666.03 -38.2241C666.03 -35.3267 665.452 -31.4152 664.728 -29.5318C664.005 -27.6485 662.992 -24.4613 662.414 -22.1434C661.98 -19.9703 658.652 -15.4793 655.18 -12.1472C651.564 -8.67028 648.67 -5.19336 648.67 -4.17925C648.67 -3.16515 648.092 -1.13696 647.368 0.311768C646.5 1.61562 645.488 5.23741 645.054 8.13485C644.475 11.6118 643.318 13.7848 641.582 14.3643C635.94 16.1028 634.204 20.3041 632.034 36.24C627.404 72.4579 625.379 82.8887 621.328 92.5951C619.882 96.2169 619.014 102.447 619.014 109.98C619.014 120.701 619.448 122.294 623.064 127.075C626.247 131.276 626.97 133.739 626.97 140.258C626.97 147.502 627.549 148.951 632.034 154.021C635.94 158.367 637.097 160.83 637.097 165.321C637.097 171.696 639.122 174.448 643.752 174.448C647.079 174.448 651.564 167.205 651.564 161.844C651.564 158.657 655.759 154.166 658.652 154.166C659.52 154.166 661.98 152.428 663.86 150.399C666.609 147.357 667.477 144.894 667.477 139.824C667.477 132.29 668.056 131.421 680.931 123.743C685.56 120.99 690.19 117.368 691.202 115.775C694.385 110.704 697.712 97.3759 698.436 85.7861C698.87 77.2387 700.027 72.8925 703.065 67.3874C706.537 60.8682 706.826 59.1297 706.103 49.5682C705.235 38.2682 707.116 25.8092 710.154 22.3323C712.468 19.7246 713.626 6.25151 714.638 -26.9241C715.651 -59.81 713.047 -67.778 701.04 -68.2126C698.146 -68.3575 693.372 -68.937 690.624 -69.5164C686.862 -70.2408 684.548 -69.8062 681.654 -67.778Z" fill="#FAEADE"/>
<path d="M452.648 -36.9213C448.742 -35.9072 445.27 -33.5892 441.509 -29.388C438.471 -26.0559 436.011 -22.8687 436.011 -22.2892C436.011 -21.7098 432.105 -14.7559 427.331 -6.9328C422.557 1.03515 418.651 8.13387 418.651 9.0031C418.651 10.5967 409.393 17.9851 407.223 17.9851C404.763 17.9851 403.027 22.7659 402.015 32.4723C401.002 41.0197 399.555 47.6838 395.36 60.8672C394.637 63.33 393.913 72.4569 393.769 81.1492C393.624 99.8377 392.322 103.749 382.629 114.615C372.937 125.48 371.635 128.812 368.741 149.529C365.414 172.998 366.282 187.051 371.635 197.771C373.949 202.117 376.264 207.478 376.843 209.94C377.421 212.258 380.025 219.792 382.485 226.601C385.089 233.41 387.982 242.102 389.139 246.158C394.203 265.426 396.807 277.016 396.951 280.928C397.096 287.302 398.832 289.475 402.883 288.171C409.971 285.998 413.009 280.928 418.073 263.543C420.821 253.837 428.778 243.985 433.841 243.985C435.577 243.985 438.037 245.144 439.194 246.448C444.691 252.822 445.415 256.01 445.559 280.348C445.849 301.644 446.283 305.121 448.887 310.337C452.359 317.145 455.831 319.608 459.303 317.87C460.605 317.145 464.511 311.785 467.983 305.99C471.455 300.195 475.361 294.256 476.663 292.807C477.965 291.358 481.437 284.115 484.475 276.871C487.368 269.483 490.695 261.37 491.853 258.762C493.01 256.154 493.878 251.229 493.878 247.752C493.878 243.406 494.746 240.798 496.771 238.915C498.363 237.466 499.809 236.597 500.099 236.887C505.741 244.71 506.03 246.013 506.464 270.062C506.753 293.242 509.068 308.598 513.987 321.202C514.855 323.52 515.578 327.866 515.578 331.053C515.578 338.007 521.365 347.858 526.573 349.742C528.598 350.611 531.781 350.756 533.806 350.321C539.014 349.017 545.958 339.89 545.958 334.385C545.958 331.922 547.26 325.403 548.851 319.898C550.587 314.393 552.613 307.294 553.481 304.107C555.072 298.747 559.846 289.04 561.871 287.447C562.45 287.012 564.041 283.825 565.488 280.203C567.803 274.553 568.092 269.048 568.237 238.915C568.381 212.983 568.96 203.276 570.407 200.669C572.721 196.467 572.866 136.345 570.551 129.971C569.683 127.798 566.645 122.583 563.897 118.526C559.267 111.862 557.965 110.993 551.021 109.399C546.681 108.385 542.775 106.937 542.341 106.212C536.989 97.8095 513.263 131.275 508.345 154.165C507.332 158.511 505.307 164.161 503.86 166.624C501.545 170.535 501.111 174.157 501.111 193.86C501.111 206.319 500.533 216.46 499.954 216.46C498.363 216.46 495.469 199.22 494.457 183.863C493.878 174.881 494.312 167.783 495.759 160.829C497.639 151.992 497.784 149.094 495.759 136.201C494.601 128.088 492.431 119.251 490.84 116.353C487.368 109.544 487.368 107.226 491.129 99.4031C493.878 94.0428 494.167 91.7249 493.155 83.4672C492.576 78.1069 491.853 65.2133 491.563 54.9274C490.84 24.7941 487.079 1.03515 480.135 -18.9572C474.348 -35.6175 472.033 -38.5149 464.511 -38.37C461.183 -38.2251 455.831 -37.6457 452.648 -36.9213Z" fill="#FAEADE"/>
<path d="M246.497 110.994C246.497 112.008 244.471 116.789 242.157 121.57C239.842 126.351 237.817 130.987 237.817 131.711C237.817 132.58 235.936 134.898 233.622 136.926C230.873 139.389 227.256 146.053 222.916 156.919C214.381 178.215 211.343 180.678 201.94 173.434C197.744 170.392 196.442 169.957 194.272 171.261C192.826 172.275 190.8 172.999 189.788 172.999C187.184 172.999 179.95 180.533 179.95 183.285C179.95 184.734 179.372 186.038 178.504 186.328C176.478 187.052 171.415 202.119 171.126 208.638C170.836 214.578 167.509 226.023 162.88 236.743C160.854 241.669 159.986 247.898 159.408 261.661C158.974 271.802 157.961 280.929 157.238 281.943C156.37 282.957 155.212 286.724 154.634 290.346C153.621 297.444 152.753 300.921 148.558 314.249C146.243 321.928 145.954 327.867 146.243 368.866C146.388 408.706 146.822 415.805 148.992 421.744C152.753 432.03 153.91 432.899 165.05 432.899L174.887 433.044L175.755 441.012C177.202 452.747 176.189 455.499 170.836 455.499C166.062 455.499 158.25 461.584 158.25 465.206C158.25 466.365 156.37 471.29 154.055 476.216C147.4 490.848 146.098 495.774 147.834 501.713C151.162 513.303 152.464 527.211 150.728 533.151C148.558 540.395 145.375 544.161 141.758 543.581C138.865 543.147 138.72 541.988 138.286 524.458C137.997 511.565 138.576 503.452 140.022 498.381C141.18 494.325 142.482 482.446 143.06 472.16C143.639 461.729 144.652 452.602 145.52 451.588C146.243 450.719 146.677 447.676 146.388 445.069C146.098 441.447 145.23 440.143 142.916 439.853C141.18 439.564 139.154 437.825 138.286 435.797C137.129 433.479 135.393 432.32 133.078 432.32C128.738 432.32 125.7 438.984 127.002 445.648C128.015 451.153 124.543 461.584 119.48 467.813C116.586 471.29 116.152 473.029 117.02 477.955C117.454 481.142 117.888 486.212 117.744 489.255C117.744 492.297 118.612 498.526 119.914 503.017C122.807 512.869 121.939 521.126 116.731 532.137C114.706 536.483 112.825 543.292 112.536 547.348C112.391 551.405 111.668 558.069 111.234 561.98C110.366 568.499 110.655 569.513 113.982 572.701C118.901 577.337 119.19 586.319 114.706 591.099C110.076 596.025 109.064 603.848 110.944 618.48L112.68 631.519L118.612 633.547C123.964 635.43 125.122 635.285 131.198 632.822C139.154 629.49 141.035 626.013 139.878 616.307C139.01 609.063 139.154 608.774 142.482 609.353C145.664 609.788 145.954 610.512 146.388 619.929C146.822 630.07 149.136 635.14 153.476 635.14C154.489 635.14 157.816 633.547 160.854 631.808C169.1 626.593 174.887 625.869 177.346 629.78C183.567 639.487 184.724 646.585 184.869 673.531C185.014 693.524 185.448 700.478 187.039 702.216C189.209 704.969 199.914 705.548 204.254 703.375C205.556 702.651 209.752 700.767 213.513 699.029C218.142 696.857 222.482 693.089 226.533 687.874C235.792 675.994 236.949 677.153 237.962 699.608C239.119 724.671 242.157 735.247 249.679 740.607C252.862 742.925 256.623 749.879 256.623 753.646C256.623 755.094 254.309 760.744 251.56 766.394C247.075 775.376 246.497 777.549 246.641 787.98C246.641 803.481 248.377 812.753 251.849 817.389C254.453 820.721 255.755 821.301 261.108 820.866C268.486 820.431 280.638 813.767 284.833 808.117C286.425 805.944 290.041 801.308 292.935 797.831C301.036 787.98 304.363 780.157 304.363 770.885C304.363 766.394 304.942 762.483 305.665 762.048C306.244 761.613 307.257 758.571 307.691 755.384C308.125 751.762 310.15 747.706 312.899 744.519C316.371 740.607 317.383 738 317.383 733.508C317.383 727.569 321.289 722.208 325.629 722.063C326.642 722.063 330.114 716.558 333.441 709.749C339.083 698.015 339.662 697.435 344.147 697.435C355.865 697.435 362.809 691.206 364.255 679.616C365.268 672.228 365.702 671.214 369.174 670.344C371.344 669.91 373.514 668.751 374.093 667.881C374.671 667.012 375.539 666.722 375.973 667.302C376.407 667.737 374.816 671.069 372.357 674.69C370.042 678.312 368.017 682.658 368.017 684.397C368.017 686.28 365.123 692.51 361.507 698.594C357.022 705.983 354.997 711.053 354.997 714.675C354.852 717.572 353.695 722.498 352.103 725.685C349.065 731.915 348.342 742.78 350.657 748.72C352.248 752.921 356.733 755.674 359.915 754.515C362.953 753.356 368.017 744.953 368.017 741.187C368.017 739.448 370.765 735.392 374.237 731.915C380.747 725.396 383.062 720.18 387.691 701.057C389.427 693.813 391.453 689.467 394.78 685.846C399.554 680.63 402.303 674.836 403.026 668.461C403.315 665.854 404.473 664.694 407.221 664.405C411.272 663.97 413.876 659.189 416.914 646.296C420.386 632.098 418.071 623.696 411.127 625.434C407.077 626.448 402.592 634.851 401.435 644.122L400.567 649.917L396.516 646.73C393.044 643.978 392.176 643.833 390.151 645.571C388.849 646.585 386.968 649.628 385.811 652.09C382.483 660.203 381.037 657.596 381.037 643.398C381.037 632.822 380.458 628.766 378.143 624.275C376.552 621.088 375.25 615.728 375.25 611.961C375.105 599.503 372.646 587.767 368.885 581.683C365.557 576.612 365.268 575.163 366.859 572.411C367.872 570.383 368.451 562.705 368.451 551.115C368.306 531.992 367.293 528.225 357.89 511.999C356.299 509.247 354.997 505.48 354.997 503.742C354.997 498.671 350.512 490.558 347.185 489.689C343.279 488.53 339.662 492.876 337.492 500.844C336.624 504.176 334.454 509.681 332.573 513.013C330.693 516.346 328.812 521.126 328.233 523.589C327.655 525.907 326.642 528.225 325.919 528.66C325.195 529.239 324.617 531.412 324.617 533.585C324.617 535.903 323.749 538.511 322.591 539.38C321.434 540.394 320.132 544.451 319.553 548.652C318.975 552.708 317.962 557.055 317.239 558.358C316.66 559.517 315.647 562.994 315.213 565.892C314.635 569.803 312.175 573.86 306.678 579.655C302.483 584.29 297.564 591.099 295.683 595.011C290.765 605.007 288.161 607.035 282.808 604.862C278.179 602.834 276.877 599.067 276.877 587.333C276.877 580.813 280.927 565.022 284.833 556.185C285.846 553.722 288.45 548.217 290.331 543.871C292.356 539.38 295.539 533.44 297.419 530.688C300.891 525.472 306.389 509.826 310.873 491.717C312.32 486.502 314.056 481.287 315.069 480.128C320.711 472.884 321.145 469.407 317.528 451.878C316.805 447.821 316.081 438.26 316.081 430.437C315.937 415.515 314.49 410.444 308.125 403.635C305.521 400.738 304.942 397.84 304.363 384.802C303.64 370.46 303.351 369.301 300.602 368.866C296.407 368.287 286.569 378.283 282.085 387.699C278.757 394.798 272.392 403.346 270.367 403.346C269.065 403.346 269.643 397.551 271.669 390.597C272.826 386.83 274.562 380.601 275.719 376.689C277.021 371.474 279.191 368.142 283.821 364.23C289.752 358.87 289.897 358.58 289.897 349.453C289.897 344.383 290.765 337.284 291.922 333.662C293.079 330.185 294.381 320.769 294.815 312.656C295.249 304.543 296.262 295.126 297.13 291.505C300.168 279.77 297.13 250.361 291.199 233.121C289.318 227.906 288.595 227.326 283.965 226.892C279.191 226.457 278.613 225.878 276.732 220.373C275.719 217.04 274.417 206.175 273.983 196.324C273.405 181.547 272.826 178.07 270.801 176.766C268.92 175.607 267.618 175.897 264.869 178.505C262.989 180.243 261.253 181.692 260.819 181.692C260.529 181.692 260.24 173.579 260.24 163.728C260.24 146.343 260.095 145.764 256.623 142.866C253.296 140.258 253.007 138.81 252.862 128.234C252.717 121.715 252.139 114.906 251.705 112.878C250.837 109.256 246.497 107.807 246.497 110.994Z" fill="#FAEADE"/>
<path d="M653.155 256.006C648.815 259.193 646.211 262.38 645.343 265.568C644.764 268.175 642.45 273.101 640.424 276.288C638.399 279.62 636.084 284.546 635.506 287.298C633.625 295.846 638.399 326.124 643.028 335.541C643.752 336.989 644.33 339.597 644.33 341.48C644.33 343.364 646.356 347.565 648.815 350.897C651.274 354.374 653.589 359.589 654.023 362.777C654.602 366.978 656.048 369.73 659.376 372.338C670.949 381.755 675 385.811 680.063 392.765C684.403 398.705 686.428 400.443 689.611 400.443C691.781 400.443 693.517 399.719 693.517 398.994C693.517 396.966 698.725 397.111 702.631 399.284C704.367 400.153 709.43 403.63 713.77 406.962C718.11 410.294 724.042 414.061 726.79 415.365C733.011 417.973 756.302 419.856 759.919 417.828C761.366 417.103 763.97 413.047 765.85 408.991C770.335 398.415 769.612 384.218 764.259 377.119C760.642 372.338 751.962 354.809 748.78 346.116C747.912 343.653 746.899 339.018 746.61 335.686C745.742 328.297 740.823 317.577 736.483 313.665C733.156 310.623 722.595 302.075 715.072 296.28C712.613 294.252 708.562 290.051 706.248 286.864C700.75 279.186 686.284 264.264 684.258 264.264C683.535 264.264 680.063 261.656 676.736 258.324C668.345 250.066 661.98 249.487 653.155 256.006Z" fill="#FAEADE"/>
<path d="M34.2699 393.343C26.1686 396.53 21.9733 401.601 20.0926 410.583C19.5139 413.335 18.5013 416.233 17.9226 417.102C17.3439 417.826 16.3313 421.883 15.7526 425.939C14.7399 434.342 16.6206 437.239 23.2753 436.37C27.0366 435.935 27.3259 436.225 26.8919 441.006C24.7219 467.083 24.5773 465.924 28.1939 465.344C31.6659 464.91 41.6479 450.278 43.3839 442.889C43.9626 440.716 47.0006 434.052 50.0386 427.967C57.4166 413.625 59.8759 406.816 59.8759 399.428C59.8759 392.763 59.5866 392.619 48.3026 391.17C43.6733 390.59 39.6226 391.315 34.2699 393.343Z" fill="#FAEADE"/>
<path d="M633.915 414.061C631.601 416.234 629.141 422.029 627.839 428.113C627.261 430.866 625.814 432.17 623.065 432.749C616.411 434.198 615.253 435.792 614.385 444.774C613.373 454.77 611.492 457.377 601.51 462.158C597.459 464.042 593.119 466.794 591.673 468.388C588.056 472.299 583.571 486.352 583.571 493.74C583.571 502.867 580.823 514.747 577.64 520.252C575.325 524.018 574.891 527.206 575.181 539.085C575.325 550.385 574.747 554.876 572.432 561.25C568.237 572.695 565.777 598.772 566.501 624.27C567.224 651.506 568.381 653.968 580.099 653.968C584.295 653.968 588.201 654.548 588.635 655.417C589.937 657.445 596.881 657.156 599.919 654.693C606.139 650.057 614.675 631.368 615.977 619.489C617.134 608.768 620.172 603.118 627.116 598.483C631.167 595.73 632.324 593.847 633.626 586.893C635.507 577.476 638.545 571.971 642.74 570.667C644.621 570.088 645.923 568.059 646.357 565.162C646.791 562.554 647.803 555.89 648.671 550.385C652.288 526.481 657.351 500.549 659.666 493.161C663.283 481.281 663.861 472.154 661.113 466.504C659.811 463.752 658.798 460.999 658.798 460.13C658.798 459.406 657.785 457.957 656.628 456.943C655.181 455.784 654.458 452.452 654.458 446.657C654.458 439.413 653.879 437.675 650.552 434.633C647.948 432.17 645.923 427.968 644.331 421.884C642.595 414.64 641.438 412.612 638.979 412.322C637.387 412.033 635.073 412.902 633.915 414.061Z" fill="#FAEADE"/>
<path d="M73.6192 435.943C71.3046 437.102 67.5432 438.261 65.3732 438.695C62.3352 439.42 60.7439 441.448 57.7059 447.967C55.6806 452.458 52.9319 458.108 51.9192 460.571C50.7619 462.889 49.4599 467.235 49.0259 469.988C48.5919 472.74 46.7112 477.955 44.8306 481.577C32.9679 504.177 33.9806 500.845 33.8359 522.866C33.8359 549.088 37.7419 561.257 46.4219 561.257C51.0512 561.257 55.6806 550.826 56.6932 537.643C57.4166 528.081 57.5612 527.647 66.5306 517.65C71.4492 512 78.1039 503.743 81.1419 499.252L86.6392 490.994L87.0732 466.076L87.6519 441.158L83.8906 437.391C79.6952 433.335 79.5506 433.19 73.6192 435.943Z" fill="#FAEADE"/>
<path d="M804.043 487.081C802.451 488.095 796.086 498.526 793.482 504.031C792.759 505.625 790.444 508.522 788.419 510.406C786.393 512.434 784.657 514.607 784.657 515.331C784.657 516.635 782.198 522.72 778.147 531.557C773.084 542.422 770.191 551.694 770.191 557.054C770.191 560.242 769.178 564.443 767.876 566.326C765.417 570.093 765.706 585.594 768.889 612.395C769.757 620.074 770.046 629.49 769.467 633.257C766.14 658.03 767.731 682.368 773.229 690.481C776.845 695.552 776.701 699.608 772.939 705.693C770.046 710.329 769.901 711.633 771.059 728.293C771.782 737.999 772.216 747.851 772.071 750.313C771.637 756.977 775.688 797.107 777.135 800.004C777.858 801.308 778.871 805.51 779.449 809.131C780.751 817.534 787.261 834.774 791.167 839.554C795.363 844.77 798.111 845.349 808.238 843.031C818.799 840.568 824.007 835.643 830.951 821.301C833.41 816.375 836.593 811.16 838.039 809.856C839.631 808.407 842.235 804.061 843.826 800.149C846.141 795.079 848.455 792.181 852.651 789.863C859.161 786.097 862.777 778.998 862.777 770.016C862.777 766.974 863.79 761.324 865.092 757.412C868.709 745.533 870.3 735.247 871.023 718.007L871.602 701.492L878.112 695.117C881.584 691.495 884.477 688.163 884.477 687.439C884.477 686.86 885.635 685.266 887.081 683.817C892 679.471 895.761 661.507 897.063 635.43C897.642 624.275 897.208 620.798 894.604 613.844C892.868 609.208 890.987 604.862 890.264 603.993C889.685 603.268 888.528 600.226 887.66 597.474C886.792 594.721 884.477 587.767 882.307 582.262C875.942 565.312 870.155 543.436 868.709 530.688C867.407 519.388 866.539 517.794 862.199 517.794C858.727 517.794 849.757 525.617 849.757 528.66C849.757 534.454 843.103 550.535 838.473 555.461C832.542 562.27 830.083 562.56 824.296 557.634L820.101 554.012L819.233 529.094C818.365 502.293 817.063 495.774 811.421 489.689C807.804 485.777 806.647 485.343 804.043 487.081Z" fill="#FAEADE"/>
<path d="M-23.162 672.225C-23.596 673.529 -24.03 676.426 -24.03 678.744C-24.03 681.931 -24.7533 682.945 -26.9233 682.945C-28.5147 682.945 -30.2507 684.104 -30.8293 685.408C-31.2633 686.857 -32.8547 690.624 -34.1567 693.811C-35.6033 696.998 -37.1947 703.662 -37.6287 708.733C-38.2073 713.658 -40.088 722.64 -42.1133 728.58C-47.3213 744.806 -47.6107 747.993 -45.0067 762.045C-41.824 779.865 -40.3773 783.631 -36.3267 785.804C-34.3013 786.818 -32.71 788.267 -32.71 788.847C-32.71 789.426 -31.6973 790.875 -30.54 792.179C-27.936 794.642 -20.992 793.193 -16.652 789.281C-14.1927 787.108 -13.7587 787.108 -10.142 790.006C-7.97199 791.744 -5.80199 793.048 -5.07865 793.048C-2.47465 793.048 0.563343 788.122 0.563343 783.776C0.563343 781.313 1.14201 778.561 1.72068 777.692C2.44401 776.967 4.18001 773.201 5.62668 769.289C8.66468 760.886 7.94135 749.586 3.60135 740.46C2.15468 737.127 -0.0153236 730.608 -0.883324 725.827C-1.89599 721.192 -3.77665 713.513 -5.36799 709.022C-6.81465 704.531 -8.26132 695.839 -8.55065 690.044C-8.98465 681.352 -9.70799 678.31 -12.4567 674.543C-16.218 669.472 -21.7153 668.313 -23.162 672.225Z" fill="#FAEADE"/>
</g>
</g>
</g>
</g>
<defs>
<filter id="filter0_f_631_153" x="-149.801" y="-408.609" width="1325.73" height="1521.71" filterUnits="userSpaceOnUse" color-interpolation-filters="sRGB">
<feFlood flood-opacity="0" result="BackgroundImageFix"/>
<feBlend mode="normal" in="SourceGraphic" in2="BackgroundImageFix" result="shape"/>
<feGaussianBlur stdDeviation="125" result="effect1_foregroundBlur_631_153"/>
</filter>
<radialGradient id="paint0_radial_631_153" cx="0" cy="0" r="1" gradientUnits="userSpaceOnUse" gradientTransform="translate(535.5 368.5) rotate(107.283) scale(665.433 728.24)">
<stop stop-color="#E7C4A9"/>
<stop offset="1" stop-color="#BC7853"/>
</radialGradient>
<clipPath id="clip0_631_153">
<rect width="1024" height="677" fill="white"/>
</clipPath>
</defs>
</svg>
