<svg width="1024" height="677" viewBox="0 0 1024 677" fill="none" xmlns="http://www.w3.org/2000/svg">
<g clip-path="url(#clip0_633_74)">
<mask id="mask0_633_74" style="mask-type:luminance" maskUnits="userSpaceOnUse" x="0" y="0" width="1024" height="677">
<path d="M984 0H40C17.9086 0 0 17.9086 0 40V637C0 659.091 17.9086 677 40 677H984C1006.09 677 1024 659.091 1024 637V40C1024 17.9086 1006.09 0 984 0Z" fill="white"/>
</mask>
<g mask="url(#mask0_633_74)">
<path d="M984 0H40C17.9086 0 0 17.9086 0 40V637C0 659.091 17.9086 677 40 677H984C1006.09 677 1024 659.091 1024 637V40C1024 17.9086 1006.09 0 984 0Z" fill="#32302F"/>
<g filter="url(#filter0_f_633_74)">
<path d="M901.82 -5.73063L355.381 -152.148L124.308 710.228L670.746 856.646L901.82 -5.73063Z" fill="#797673"/>
</g>
<mask id="mask1_633_74" style="mask-type:luminance" maskUnits="userSpaceOnUse" x="-169" y="-206" width="1303" height="1131">
<path d="M1133.3 -205.117H-168.695V924.883H1133.3V-205.117Z" fill="white"/>
</mask>
<g mask="url(#mask1_633_74)">
<g opacity="0.05">
<path d="M234.78 -194.253C232.61 -181.794 232.755 -181.939 213.948 -172.522C203.387 -167.162 202.085 -166.003 198.324 -158.904C195.575 -153.689 193.839 -147.025 192.827 -139.347C190.512 -120.658 188.921 -114.284 184.87 -107.765C181.109 -101.97 180.964 -100.521 180.819 -82.702C180.675 -65.3174 180.385 -63.2892 176.913 -57.2046C174.165 -52.279 172.863 -47.3533 172.139 -38.3713C171.561 -31.7072 170.548 -25.6226 169.825 -24.8982C167.365 -22.4354 168.089 27.2556 170.548 36.0928C173.441 45.7992 176.479 47.8274 189.355 48.6967C194.997 49.1313 200.783 50.2902 202.375 51.1595C206.281 53.6223 217.854 48.6967 221.326 43.0467C222.773 40.8736 226.1 35.5133 228.704 31.312C231.453 27.1108 234.201 20.5915 234.925 16.8249C239.265 -6.06487 241.29 -10.2661 252.574 -17.22C258.505 -21.1315 259.084 -22.0008 262.267 -33.5905C265.449 -44.8905 266.028 -46.0495 269.789 -46.7738C276.878 -48.2226 279.771 -52.7136 281.218 -65.8969C281.941 -72.4161 282.954 -78.3559 283.533 -79.2251C283.967 -80.0943 284.835 -84.1508 285.558 -88.2072C289.175 -111.966 292.068 -125.584 295.106 -131.958C296.987 -136.015 299.157 -143.693 299.88 -149.053C300.603 -154.268 301.616 -159.194 302.05 -160.063C303.207 -161.802 298.289 -172.667 293.659 -178.897C290.766 -182.808 289.898 -185.706 289.898 -191.211C289.898 -206.132 291.779 -205.118 262.411 -205.118H236.805L234.78 -194.253Z" fill="#FAEADE"/>
<path d="M807.369 -167.455C805.343 -165.861 801.582 -164.557 798.689 -164.557C793.191 -164.557 789.285 -161.515 782.341 -151.519C777.857 -144.855 773.661 -142.247 760.786 -137.756C751.961 -134.569 741.979 -124.863 740.677 -117.909C739.665 -112.838 735.759 -99.075 733.878 -94.2942C728.091 -79.0827 726.645 -65.7545 730.406 -60.8288C731.708 -59.0903 732.576 -54.4545 732.576 -47.2109C732.576 -34.8968 733.155 -33.5929 738.652 -32.1442C741.111 -31.5647 743.571 -29.3916 745.017 -26.7839C747.187 -22.2929 748.2 -22.148 754.71 -24.7557C756.88 -25.625 757.169 -24.7557 757.169 -15.6288C757.169 -4.32877 758.761 1.17635 763.245 5.95712C767.441 10.4481 768.743 10.1584 775.831 3.49429C779.159 0.307109 783.209 -2.30058 784.801 -2.30058C790.877 -2.30058 798.978 -8.53005 802.45 -16.0634C808.237 -28.3775 809.683 -33.0134 810.696 -45.0378C811.709 -55.4686 816.483 -77.0544 818.653 -80.6762C819.231 -81.4006 820.099 -85.0224 820.823 -88.9339C824.005 -106.174 825.597 -111.1 831.962 -123.993C838.761 -137.466 838.761 -138.046 838.472 -149.925C838.038 -161.95 836.013 -167.6 831.239 -169.628C828.49 -170.642 824.005 -168.034 822.993 -164.557C821.835 -160.936 816.483 -160.646 816.483 -164.268C816.483 -166.875 813.879 -170.352 811.998 -170.352C811.564 -170.352 809.394 -169.048 807.369 -167.455Z" fill="#FAEADE"/>
<path d="M50.3292 -137.899C48.4485 -136.45 46.7125 -136.305 43.6745 -137.319C41.3599 -138.189 36.8752 -138.334 33.4032 -137.899C30.0759 -137.319 24.1445 -136.74 20.2385 -136.45C15.7539 -136.161 12.4265 -135.002 11.4139 -133.553C10.4012 -132.249 7.79726 -131.235 5.4826 -131.235C-0.0147395 -131.235 -5.80141 -127.903 -17.6641 -118.196C-33.1435 -105.303 -37.0495 -101.246 -37.0495 -98.2037C-37.0495 -96.4652 -37.6281 -94.7268 -38.4961 -94.2922C-39.3641 -93.8575 -39.9428 -91.3947 -39.9428 -89.0768C-39.9428 -84.4409 -45.0061 -73.2857 -47.1761 -73.2857C-49.0568 -73.2857 -49.7801 -69.9537 -51.5161 -54.4524C-52.8181 -42.5729 -53.6861 -40.1101 -57.1581 -36.3434C-64.1021 -28.8101 -65.9828 -24.464 -66.9955 -13.5986C-67.4295 -7.80366 -69.3101 0.309162 -71.1908 4.36557C-74.5181 12.0437 -74.6628 18.2732 -72.0588 33.0501C-70.7568 40.004 -70.0335 40.8732 -62.6555 44.9296C-59.4728 46.6681 -58.7495 47.9719 -58.7495 52.7527C-58.7495 55.795 -59.4728 58.8373 -60.1961 59.2719C-60.9195 59.7066 -61.6428 61.3001 -61.6428 62.7489C-61.6428 64.1976 -62.9448 67.095 -64.5361 69.1232C-68.7315 74.3386 -68.1528 79.6989 -63.0895 84.9142C-60.0515 87.8117 -58.7495 90.5642 -58.7495 93.7514C-58.7495 99.4014 -57.3028 101.719 -52.8181 104.037C-50.3588 105.196 -49.0568 107.369 -48.6228 110.846C-47.4655 118.814 -36.3261 132.432 -30.8288 132.432C-28.9481 132.432 -25.1868 134.17 -22.4381 136.198C-17.9535 139.675 -16.6515 139.82 -7.10342 139.241C7.94191 138.082 8.37593 138.661 7.50793 156.481C6.92926 165.607 5.9166 172.416 4.32526 175.169C3.02326 177.487 2.0106 180.239 2.0106 181.109C2.0106 181.833 0.563922 185.455 -1.17207 189.077C-3.92074 194.437 -4.49941 198.928 -5.22274 216.892C-5.80141 230.22 -6.81407 238.913 -7.82674 239.927C-10.7201 242.824 -9.85207 250.502 -6.23541 253.834C-4.35474 255.573 -1.89542 257.022 -0.593414 257.022C0.563919 257.022 4.1806 259.05 7.2186 261.513C10.9799 264.41 13.7285 265.569 15.7539 264.989C17.3452 264.555 20.6726 263.83 23.132 263.251C27.7613 262.527 27.7613 262.527 30.076 270.929C34.5606 287.01 33.8372 286.286 49.7505 288.748C56.8392 289.907 58.1412 289.763 61.0345 287.01C62.7705 285.416 64.2173 283.243 64.2173 282.229C64.2173 281.215 65.8086 278.463 67.834 276.145C69.8593 273.827 73.3312 268.177 75.7905 263.541C80.4199 254.848 85.3386 247.025 87.9426 244.707C90.6913 242.245 95.4652 234.856 98.9372 228.047C100.673 224.425 103.566 219.934 105.302 217.906C110.366 212.256 115.14 199.363 116.008 189.366C116.876 178.646 113.404 164.448 108.34 157.784C105.447 154.018 101.975 143.442 96.1886 121.132C94.5973 115.482 91.1252 111.281 85.6279 108.383C75.7905 103.313 75.0672 97.6631 81.1432 72.3105C86.0619 51.449 87.364 20.736 83.6026 13.3476C82.3006 10.7399 75.6459 3.06174 68.702 -3.60237L56.2605 -15.7716L55.8266 -26.0575C55.248 -37.6473 57.8519 -43.8768 67.1105 -54.0178C79.8412 -67.6357 85.9173 -82.4127 85.9173 -99.0729C85.9173 -108.345 85.194 -111.387 82.3006 -116.603C80.2753 -119.935 78.6839 -123.991 78.6839 -125.44C78.6839 -126.889 75.9352 -130.221 72.6079 -132.973C65.3745 -138.768 54.8139 -141.086 50.3292 -137.899Z" fill="#FAEADE"/>
<path d="M907.624 -85.6003C905.598 -84.4413 902.705 -82.9926 901.114 -82.1234C897.208 -80.3849 892.723 -75.6041 884.911 -65.3182C876.81 -54.5977 874.206 -49.3823 873.627 -43.7323C872.036 -28.0862 869.576 -18.6695 865.96 -14.1785C858.148 -4.32725 858.148 -4.47212 860.028 -0.270836C861.475 2.91635 861.33 3.93044 859.16 6.39326C857.714 7.98685 855.399 9.2907 853.952 9.2907C852.072 9.2907 849.757 12.1882 846.719 18.2728C840.354 30.8766 836.737 35.3677 832.976 35.3677C831.24 35.3677 826.466 37.1061 822.415 39.1343C817.062 41.8869 815.037 43.9151 815.037 46.0882C815.037 53.4766 811.854 60.2856 807.08 63.0382C804.476 64.6318 801.872 67.3843 801.294 69.1228C800.136 72.31 800.136 72.31 799.558 68.833C799.124 66.66 799.702 64.6318 801.004 63.6177C803.753 61.5894 809.25 52.6074 809.25 49.9997C809.25 48.1164 814.314 37.1061 820.245 26.2407C821.402 24.0677 822.994 18.9971 823.572 14.9407C824.296 10.8843 825.453 6.97275 826.466 5.95864C827.334 5.08941 828.057 0.163778 828.057 -4.76186C828.057 -15.917 825.308 -21.1323 819.522 -21.1323C816.339 -21.1323 814.892 -19.9734 812.433 -14.758C810.697 -11.2811 809.25 -7.51443 809.25 -6.21059C809.25 -4.90674 806.936 -2.15418 804.332 -0.125969C798.834 4.07531 793.916 12.9125 792.469 20.8805C790.733 31.4561 786.827 43.0459 783.934 46.0882C778.581 51.883 776.411 56.2292 775.398 63.3279C774.53 69.4125 773.952 70.1369 771.492 69.4125C767.586 68.1087 763.391 73.6138 762.089 81.4369C761.655 84.7689 760.642 87.9561 759.919 88.3907C759.196 88.8253 758.617 93.0266 758.617 97.6625C758.617 104.761 759.051 106.5 761.51 107.803C763.68 108.962 765.127 108.818 767.442 107.369C771.203 104.616 775.977 95.1997 775.977 90.4189C775.977 85.2036 777.134 84.3343 781.185 87.0869C785.67 89.9843 787.984 88.9702 791.456 82.3061C796.23 72.8894 797.532 74.483 797.098 89.5497C796.809 100.56 797.243 104.616 799.413 109.397C801.149 113.309 802.017 118.814 802.017 125.333C802.017 130.693 802.74 135.619 803.464 136.053C804.332 136.488 804.91 138.951 804.91 141.414C804.91 143.877 806.357 148.078 807.948 150.83C810.842 155.466 810.986 156.625 809.54 167.635C808.382 176.618 808.527 183.282 809.974 194.727C811.131 203.129 811.999 210.083 811.999 210.228C812.144 210.518 814.314 213.125 817.062 216.023C820.968 220.369 822.126 223.266 822.994 230.075C824.874 245.721 833.699 249.053 838.618 236.015C840.064 231.959 841.656 227.178 842.09 225.15C842.524 223.121 844.115 219.934 845.562 218.051C847.008 216.168 850.914 206.171 854.097 195.596C857.424 185.165 860.607 175.459 861.475 174.155C862.198 172.706 862.777 169.664 862.777 167.491C862.777 162.565 869.287 153.003 875.508 148.512C877.822 146.919 880.282 143.732 880.716 141.703C881.294 139.53 882.741 136.923 883.754 135.764C884.911 134.605 885.924 132.432 885.924 130.983C885.924 125.768 896.195 125.478 898.076 130.693C901.114 139.241 901.548 141.848 900.39 148.802C898.654 159.957 896.774 166.621 891.71 179.515C885.634 195.161 884.477 197.479 879.992 203.419C875.797 209.069 868.998 227.757 866.972 238.623C866.394 242.389 863.79 249.633 861.475 254.414C856.701 263.975 855.978 269.046 858.726 275.42C859.739 277.593 860.896 288.603 861.33 299.759L862.054 320.185L867.117 326.56C872.036 332.789 872.036 333.079 872.18 346.987C872.18 360.46 873.772 365.675 877.533 365.675C879.848 365.675 893.012 352.492 894.025 349.16C895.038 345.538 903.284 332.065 905.309 330.616C908.492 328.443 908.492 331.485 905.309 344.089C900.969 360.605 898.51 365.675 892.289 371.325C887.66 375.671 887.37 376.396 887.37 385.957C887.37 391.462 886.792 396.243 886.068 396.678C885.49 397.112 884.477 404.356 883.898 412.759C883.32 421.161 882.307 429.709 881.439 431.882C879.269 437.532 878.98 476.357 881.15 478.82C882.018 479.979 883.175 484.76 883.754 489.541C885.2 501.71 887.804 506.201 893.302 506.201C899.956 506.201 902.126 512.865 902.126 533.727C902.126 546.475 902.705 551.256 904.441 554.298C907.479 559.659 909.36 559.369 913.7 553.139C918.04 547.055 920.21 548.793 917.75 556.326C915.002 564.584 916.448 586.46 920.065 590.371C922.235 592.689 923.103 597.035 924.26 608.77C925.562 622.243 925.996 624.271 928.311 624.271C930.192 624.271 931.928 621.519 934.676 613.406C936.846 607.032 940.318 600.368 943.212 597.18C948.275 591.53 953.049 582.693 954.64 576.029C955.219 573.856 957.389 568.785 959.414 564.874C963.754 556.761 967.66 555.168 973.447 558.934C975.328 560.238 979.523 561.252 982.561 561.252C987.48 561.252 989.071 560.383 993.556 555.457C996.449 552.27 998.764 548.793 998.764 547.634C998.764 546.475 999.487 545.316 1000.21 545.027C1001.8 544.592 1007.44 523.73 1007.44 518.515C1007.44 516.921 1009.32 510.547 1011.78 504.462C1014.53 497.074 1016.27 489.541 1016.85 482.007C1018.15 462.015 1019.16 454.916 1021.19 448.252C1023.65 440.719 1029.14 416.235 1029.87 409.861C1030.16 407.398 1031.31 402.907 1032.18 399.575C1033.63 394.794 1033.63 391.607 1031.89 382.915C1030.45 374.947 1030.16 369.007 1031.17 359.591C1032.76 343.655 1029.29 310.044 1025.53 304.25C1023.21 300.773 1022.2 300.483 1013.09 300.483C1001.66 300.483 1001.08 299.759 1001.95 286.575C1002.38 279.766 1002.52 279.477 1007.01 279.042C1013.23 278.462 1017.28 273.102 1024.08 256.442C1028.85 244.852 1029.29 242.679 1028.85 232.538C1028.56 226.453 1027.41 218.485 1026.25 214.719C1024.37 208.489 1024.51 207.185 1027.12 199.652C1030.45 189.656 1033.77 186.903 1037.53 191.105C1039.85 193.712 1040.14 195.885 1039.13 213.56C1038.69 224.28 1037.53 235.725 1036.67 238.912C1035.8 242.1 1034.79 251.516 1034.5 259.919C1034.06 268.321 1033.05 277.448 1032.18 280.201C1029.58 288.459 1030.16 291.646 1034.21 292.66C1036.23 293.094 1038.69 295.268 1039.7 297.441C1041.01 300.193 1042.45 301.062 1045.06 300.773C1049.83 300.193 1050.84 298.165 1050.55 288.893C1050.26 282.374 1051.13 279.187 1055.04 271.509C1059.67 262.527 1059.81 261.368 1059.67 247.605C1059.38 237.753 1058.66 232.103 1057.21 229.93C1053.45 223.991 1055.47 209.069 1061.4 200.377C1063 197.914 1064.15 192.988 1064.44 186.614C1064.73 181.109 1065.74 174.589 1066.61 171.982C1068.64 166.766 1067.19 162.42 1062.42 159.957C1060.1 158.798 1059.52 156.915 1059.52 151.7C1059.52 146.339 1060.39 144.166 1064.01 139.965C1068.35 135.039 1068.49 134.605 1067.62 123.884C1066.18 105.051 1066.03 103.602 1064.15 101.719C1061.26 98.8215 1046.36 99.401 1041.58 102.443C1036.52 105.775 1035.65 108.528 1037.24 114.902C1039.13 121.711 1038.26 125.188 1034.79 125.188C1031.46 125.188 1029.87 119.973 1031.02 111.86C1032.04 104.182 1029 99.1112 1023.36 99.1112C1021.19 99.1112 1018.58 100.125 1017.57 101.284C1016.56 102.443 1014.68 103.457 1013.37 103.457C1012.07 103.457 1009.18 104.471 1006.86 105.63C1004.69 106.789 1002.24 107.514 1001.66 107.079C1000.93 106.644 999.342 103.023 998.04 99.1112C996.738 95.1997 995.002 91.5779 994.279 91.1433C993.556 90.5638 992.977 78.1048 992.977 63.0382C992.977 37.6856 992.832 35.5125 989.939 31.8907C987.769 29.1382 986.178 28.2689 983.574 28.9933C981.838 29.4279 979.957 29.1382 979.378 28.4138C978.944 27.6895 975.038 28.8484 970.264 31.1664C965.635 33.4843 961.295 35.3677 960.427 35.3677C959.704 35.5125 957.678 37.251 956.087 39.2792C947.841 49.8548 944.224 53.1869 941.765 52.3177C939.45 51.4484 939.161 49.4202 939.595 35.6574C939.74 27.11 939.161 17.5484 938.293 14.3612C937.425 11.1741 936.412 6.97275 935.978 4.94454C935.544 2.91634 931.928 -2.58878 927.877 -7.36955C923.971 -12.0054 920.644 -17.3657 920.644 -19.249C920.644 -20.9875 922.958 -27.5067 925.852 -33.7362L931.06 -45.0362L930.047 -61.6964C928.89 -82.8477 926.43 -87.7734 917.316 -87.7734C913.989 -87.7734 909.649 -86.7593 907.624 -85.6003Z" fill="#FAEADE"/>
<path d="M681.654 -67.778C679.484 -66.3293 675.868 -61.9831 673.842 -57.9267C671.672 -54.0152 669.068 -49.2344 668.056 -47.2062C666.898 -45.178 666.03 -41.1216 666.03 -38.2242C666.03 -35.3267 665.452 -31.4152 664.728 -29.5319C664.005 -27.6485 662.992 -24.4613 662.414 -22.1434C661.98 -19.9703 658.652 -15.4793 655.18 -12.1472C651.564 -8.67028 648.67 -5.19336 648.67 -4.17925C648.67 -3.16515 648.092 -1.13695 647.368 0.311775C646.5 1.61562 645.488 5.23741 645.054 8.13485C644.475 11.6117 643.318 13.7848 641.582 14.3643C635.94 16.1028 634.204 20.304 632.034 36.2399C627.404 72.4579 625.379 82.8886 621.328 92.5951C619.882 96.2169 619.014 102.446 619.014 109.979C619.014 120.7 619.448 122.293 623.064 127.074C626.247 131.275 626.97 133.738 626.97 140.257C626.97 147.501 627.549 148.95 632.034 154.02C635.94 158.366 637.097 160.829 637.097 165.32C637.097 171.695 639.122 174.447 643.752 174.447C647.079 174.447 651.564 167.204 651.564 161.843C651.564 158.656 655.759 154.165 658.652 154.165C659.52 154.165 661.98 152.427 663.86 150.399C666.609 147.356 667.477 144.893 667.477 139.823C667.477 132.29 668.056 131.42 680.931 123.742C685.56 120.99 690.19 117.368 691.202 115.774C694.385 110.704 697.712 97.3758 698.436 85.7861C698.87 77.2387 700.027 72.8925 703.065 67.3874C706.537 60.8681 706.826 59.1297 706.103 49.5681C705.235 38.2681 707.116 25.8092 710.154 22.3322C712.468 19.7246 713.626 6.25151 714.638 -26.9242C715.651 -59.8101 713.047 -67.778 701.04 -68.2126C698.146 -68.3575 693.372 -68.937 690.624 -69.5165C686.862 -70.2408 684.548 -69.8062 681.654 -67.778Z" fill="#FAEADE"/>
<path d="M452.648 -36.9213C448.742 -35.9072 445.27 -33.5893 441.509 -29.388C438.471 -26.0559 436.011 -22.8688 436.011 -22.2893C436.011 -21.7098 432.105 -14.7559 427.331 -6.93282C422.557 1.03512 418.651 8.13384 418.651 9.00307C418.651 10.5966 409.393 17.9851 407.223 17.9851C404.763 17.9851 403.027 22.7659 402.015 32.4723C401.002 41.0197 399.555 47.6838 395.36 60.8671C394.637 63.33 393.913 72.4569 393.769 81.1492C393.624 99.8377 392.322 103.749 382.629 114.615C372.937 125.48 371.635 128.812 368.741 149.529C365.414 172.998 366.282 187.051 371.635 197.771C373.949 202.117 376.264 207.478 376.843 209.94C377.421 212.258 380.025 219.792 382.485 226.601C385.089 233.41 387.982 242.102 389.139 246.158C394.203 265.426 396.807 277.016 396.951 280.928C397.096 287.302 398.832 289.475 402.883 288.171C409.971 285.998 413.009 280.928 418.073 263.543C420.821 253.837 428.778 243.985 433.841 243.985C435.577 243.985 438.037 245.144 439.194 246.448C444.691 252.822 445.415 256.01 445.559 280.348C445.849 301.644 446.283 305.121 448.887 310.337C452.359 317.146 455.831 319.608 459.303 317.87C460.605 317.146 464.511 311.785 467.983 305.99C471.455 300.196 475.361 294.256 476.663 292.807C477.965 291.358 481.437 284.115 484.475 276.871C487.368 269.483 490.695 261.37 491.853 258.762C493.01 256.155 493.878 251.229 493.878 247.752C493.878 243.406 494.746 240.798 496.771 238.915C498.363 237.466 499.809 236.597 500.099 236.887C505.741 244.71 506.03 246.014 506.464 270.062C506.753 293.242 509.068 308.598 513.987 321.202C514.855 323.52 515.578 327.866 515.578 331.053C515.578 338.007 521.365 347.858 526.573 349.742C528.598 350.611 531.781 350.756 533.806 350.321C539.014 349.017 545.958 339.89 545.958 334.385C545.958 331.922 547.26 325.403 548.851 319.898C550.587 314.393 552.613 307.294 553.481 304.107C555.072 298.747 559.846 289.04 561.871 287.447C562.45 287.012 564.041 283.825 565.488 280.203C567.803 274.553 568.092 269.048 568.237 238.915C568.381 212.983 568.96 203.276 570.407 200.669C572.721 196.467 572.866 136.346 570.551 129.971C569.683 127.798 566.645 122.583 563.897 118.526C559.267 111.862 557.965 110.993 551.021 109.399C546.681 108.385 542.775 106.937 542.341 106.212C536.989 97.8094 513.263 131.275 508.345 154.165C507.332 158.511 505.307 164.161 503.86 166.624C501.545 170.535 501.111 174.157 501.111 193.86C501.111 206.319 500.533 216.46 499.954 216.46C498.363 216.46 495.469 199.22 494.457 183.863C493.878 174.881 494.312 167.783 495.759 160.829C497.639 151.992 497.784 149.094 495.759 136.201C494.601 128.088 492.431 119.251 490.84 116.353C487.368 109.544 487.368 107.226 491.129 99.403C493.878 94.0428 494.167 91.7248 493.155 83.4671C492.576 78.1069 491.853 65.2133 491.563 54.9274C490.84 24.7941 487.079 1.03512 480.135 -18.9572C474.348 -35.6175 472.033 -38.5149 464.511 -38.37C461.183 -38.2252 455.831 -37.6457 452.648 -36.9213Z" fill="#FAEADE"/>
<path d="M246.497 110.994C246.497 112.009 244.472 116.789 242.157 121.57C239.842 126.351 237.817 130.987 237.817 131.711C237.817 132.58 235.936 134.898 233.622 136.926C230.873 139.389 227.256 146.053 222.916 156.919C214.381 178.215 211.343 180.678 201.94 173.434C197.744 170.392 196.442 169.957 194.272 171.261C192.826 172.275 190.8 173 189.788 173C187.184 173 179.95 180.533 179.95 183.285C179.95 184.734 179.372 186.038 178.504 186.328C176.478 187.052 171.415 202.119 171.126 208.638C170.836 214.578 167.509 226.023 162.88 236.743C160.854 241.669 159.986 247.898 159.408 261.661C158.974 271.802 157.961 280.929 157.238 281.943C156.37 282.957 155.212 286.724 154.634 290.346C153.621 297.444 152.753 300.921 148.558 314.249C146.243 321.928 145.954 327.867 146.243 368.866C146.388 408.706 146.822 415.805 148.992 421.744C152.753 432.03 153.91 432.899 165.05 432.899L174.887 433.044L175.755 441.012C177.202 452.747 176.189 455.499 170.836 455.499C166.062 455.499 158.25 461.584 158.25 465.206C158.25 466.365 156.37 471.29 154.055 476.216C147.4 490.848 146.098 495.774 147.834 501.714C151.162 513.303 152.464 527.211 150.728 533.151C148.558 540.394 145.375 544.161 141.758 543.582C138.865 543.147 138.72 541.988 138.286 524.458C137.997 511.565 138.576 503.452 140.022 498.382C141.18 494.325 142.482 482.446 143.06 472.16C143.639 461.729 144.652 452.602 145.52 451.588C146.243 450.719 146.677 447.676 146.388 445.069C146.098 441.447 145.23 440.143 142.916 439.853C141.18 439.564 139.154 437.825 138.286 435.797C137.129 433.479 135.393 432.32 133.078 432.32C128.738 432.32 125.7 438.984 127.002 445.648C128.015 451.153 124.543 461.584 119.48 467.814C116.586 471.29 116.152 473.029 117.02 477.955C117.454 481.142 117.888 486.212 117.744 489.255C117.744 492.297 118.612 498.526 119.914 503.017C122.807 512.869 121.939 521.126 116.731 532.137C114.706 536.483 112.825 543.292 112.536 547.348C112.391 551.405 111.668 558.069 111.234 561.98C110.366 568.499 110.655 569.514 113.982 572.701C118.901 577.337 119.19 586.319 114.706 591.099C110.076 596.025 109.064 603.848 110.944 618.48L112.68 631.519L118.612 633.547C123.964 635.43 125.122 635.285 131.198 632.823C139.154 629.49 141.035 626.014 139.878 616.307C139.01 609.064 139.154 608.774 142.482 609.353C145.664 609.788 145.954 610.512 146.388 619.929C146.822 630.07 149.136 635.14 153.476 635.14C154.489 635.14 157.816 633.547 160.854 631.808C169.1 626.593 174.887 625.869 177.346 629.78C183.567 639.487 184.724 646.585 184.869 673.531C185.014 693.524 185.448 700.478 187.039 702.216C189.209 704.969 199.914 705.548 204.254 703.375C205.556 702.651 209.752 700.767 213.513 699.029C218.142 696.856 222.482 693.089 226.533 687.874C235.792 675.994 236.949 677.153 237.962 699.608C239.119 724.671 242.157 735.247 249.68 740.607C252.862 742.925 256.624 749.879 256.624 753.646C256.624 755.094 254.309 760.744 251.56 766.394C247.076 775.376 246.497 777.549 246.642 787.98C246.642 803.481 248.378 812.753 251.85 817.389C254.454 820.721 255.756 821.301 261.108 820.866C268.486 820.431 280.638 813.767 284.834 808.117C286.425 805.944 290.042 801.308 292.935 797.831C301.036 787.98 304.364 780.157 304.364 770.885C304.364 766.394 304.942 762.483 305.666 762.048C306.244 761.614 307.257 758.571 307.691 755.384C308.125 751.762 310.15 747.706 312.899 744.519C316.371 740.607 317.384 737.999 317.384 733.508C317.384 727.569 321.29 722.208 325.63 722.064C326.642 722.064 330.114 716.558 333.442 709.749C339.084 698.015 339.662 697.435 344.147 697.435C355.865 697.435 362.809 691.206 364.256 679.616C365.268 672.228 365.702 671.214 369.174 670.344C371.344 669.91 373.514 668.751 374.093 667.882C374.672 667.012 375.54 666.723 375.974 667.302C376.408 667.737 374.816 671.069 372.357 674.69C370.042 678.312 368.017 682.658 368.017 684.397C368.017 686.28 365.124 692.51 361.507 698.594C357.022 705.983 354.997 711.053 354.997 714.675C354.852 717.573 353.695 722.498 352.104 725.685C349.066 731.915 348.342 742.78 350.657 748.72C352.248 752.921 356.733 755.674 359.916 754.515C362.954 753.356 368.017 744.953 368.017 741.187C368.017 739.448 370.766 735.392 374.238 731.915C380.748 725.396 383.062 720.18 387.692 701.057C389.428 693.814 391.453 689.467 394.78 685.846C399.554 680.63 402.303 674.835 403.026 668.461C403.316 665.853 404.473 664.694 407.222 664.405C411.272 663.97 413.876 659.189 416.914 646.296C420.386 632.098 418.072 623.696 411.128 625.434C407.077 626.448 402.592 634.851 401.435 644.123L400.567 649.917L396.516 646.73C393.044 643.978 392.176 643.833 390.151 645.571C388.849 646.585 386.968 649.628 385.811 652.09C382.484 660.203 381.037 657.596 381.037 643.398C381.037 632.823 380.458 628.766 378.144 624.275C376.552 621.088 375.25 615.728 375.25 611.961C375.106 599.502 372.646 587.767 368.885 581.683C365.558 576.612 365.268 575.164 366.86 572.411C367.872 570.383 368.451 562.705 368.451 551.115C368.306 531.992 367.294 528.225 357.89 511.999C356.299 509.247 354.997 505.48 354.997 503.742C354.997 498.671 350.512 490.558 347.185 489.689C343.279 488.53 339.662 492.876 337.492 500.844C336.624 504.176 334.454 509.682 332.574 513.014C330.693 516.346 328.812 521.126 328.234 523.589C327.655 525.907 326.642 528.225 325.919 528.66C325.196 529.239 324.617 531.412 324.617 533.585C324.617 535.903 323.749 538.511 322.592 539.38C321.434 540.394 320.132 544.451 319.554 548.652C318.975 552.708 317.962 557.055 317.239 558.358C316.66 559.517 315.648 562.994 315.214 565.892C314.635 569.803 312.176 573.86 306.678 579.655C302.483 584.29 297.564 591.099 295.684 595.011C290.765 605.007 288.161 607.035 282.808 604.862C278.179 602.834 276.877 599.067 276.877 587.333C276.877 580.814 280.928 565.023 284.834 556.185C285.846 553.723 288.45 548.217 290.331 543.871C292.356 539.38 295.539 533.44 297.42 530.688C300.892 525.473 306.389 509.826 310.874 491.717C312.32 486.502 314.056 481.287 315.069 480.128C320.711 472.884 321.145 469.407 317.528 451.878C316.805 447.821 316.082 438.26 316.082 430.437C315.937 415.515 314.49 410.444 308.125 403.635C305.521 400.738 304.942 397.841 304.364 384.802C303.64 370.46 303.351 369.301 300.602 368.866C296.407 368.287 286.57 378.283 282.085 387.699C278.758 394.798 272.392 403.346 270.367 403.346C269.065 403.346 269.644 397.551 271.669 390.597C272.826 386.83 274.562 380.601 275.72 376.689C277.022 371.474 279.192 368.142 283.821 364.23C289.752 358.87 289.897 358.58 289.897 349.453C289.897 344.383 290.765 337.284 291.922 333.662C293.08 330.185 294.382 320.769 294.816 312.656C295.25 304.543 296.262 295.126 297.13 291.505C300.168 279.77 297.13 250.361 291.199 233.121C289.318 227.906 288.595 227.326 283.966 226.892C279.192 226.457 278.613 225.878 276.732 220.373C275.72 217.041 274.418 206.175 273.984 196.324C273.405 181.547 272.826 178.07 270.801 176.766C268.92 175.607 267.618 175.897 264.87 178.505C262.989 180.243 261.253 181.692 260.819 181.692C260.53 181.692 260.24 173.579 260.24 163.728C260.24 146.343 260.096 145.764 256.624 142.866C253.296 140.259 253.007 138.81 252.862 128.234C252.718 121.715 252.139 114.906 251.705 112.878C250.837 109.256 246.497 107.807 246.497 110.994Z" fill="#FAEADE"/>
<path d="M653.155 256.006C648.815 259.193 646.211 262.38 645.343 265.568C644.764 268.175 642.45 273.101 640.424 276.288C638.399 279.62 636.084 284.546 635.506 287.298C633.625 295.846 638.399 326.124 643.028 335.541C643.752 336.989 644.33 339.597 644.33 341.48C644.33 343.364 646.356 347.565 648.815 350.897C651.274 354.374 653.589 359.589 654.023 362.777C654.602 366.978 656.048 369.73 659.376 372.338C670.949 381.755 675 385.811 680.063 392.765C684.403 398.705 686.428 400.443 689.611 400.443C691.781 400.443 693.517 399.719 693.517 398.995C693.517 396.966 698.725 397.111 702.631 399.284C704.367 400.154 709.43 403.63 713.77 406.962C718.11 410.295 724.042 414.061 726.79 415.365C733.011 417.973 756.302 419.856 759.919 417.828C761.366 417.104 763.97 413.047 765.85 408.991C770.335 398.415 769.612 384.218 764.259 377.119C760.642 372.338 751.962 354.809 748.78 346.116C747.912 343.654 746.899 339.018 746.61 335.686C745.742 328.297 740.823 317.577 736.483 313.665C733.156 310.623 722.595 302.075 715.072 296.28C712.613 294.252 708.562 290.051 706.248 286.864C700.75 279.186 686.284 264.264 684.258 264.264C683.535 264.264 680.063 261.656 676.736 258.324C668.345 250.066 661.98 249.487 653.155 256.006Z" fill="#FAEADE"/>
<path d="M34.2719 393.343C26.1706 396.53 21.9753 401.601 20.0946 410.583C19.5159 413.335 18.5033 416.233 17.9246 417.102C17.3459 417.826 16.3333 421.883 15.7546 425.939C14.7419 434.342 16.6226 437.239 23.2773 436.37C27.0386 435.935 27.3279 436.225 26.8939 441.006C24.7239 467.083 24.5793 465.924 28.1959 465.344C31.6679 464.91 41.6499 450.278 43.3859 442.889C43.9646 440.716 47.0026 434.052 50.0406 427.967C57.4186 413.625 59.8779 406.816 59.8779 399.428C59.8779 392.763 59.5886 392.619 48.3046 391.17C43.6753 390.59 39.6246 391.315 34.2719 393.343Z" fill="#FAEADE"/>
<path d="M633.915 414.061C631.601 416.234 629.141 422.029 627.839 428.113C627.261 430.866 625.814 432.17 623.065 432.749C616.411 434.198 615.253 435.792 614.385 444.774C613.373 454.77 611.492 457.377 601.51 462.158C597.459 464.042 593.119 466.794 591.673 468.388C588.056 472.299 583.571 486.352 583.571 493.74C583.571 502.867 580.823 514.746 577.64 520.251C575.325 524.017 574.891 527.206 575.181 539.085C575.325 550.385 574.747 554.876 572.432 561.251C568.237 572.695 565.777 598.772 566.501 624.27C567.224 651.506 568.381 653.967 580.099 653.967C584.295 653.967 588.201 654.548 588.635 655.417C589.937 657.445 596.881 657.156 599.919 654.693C606.139 650.057 614.675 631.367 615.977 619.488C617.134 608.767 620.172 603.118 627.116 598.483C631.167 595.73 632.324 593.847 633.626 586.893C635.507 577.476 638.545 571.971 642.74 570.667C644.621 570.088 645.923 568.06 646.357 565.162C646.791 562.554 647.803 555.89 648.671 550.385C652.288 526.481 657.351 500.549 659.666 493.161C663.283 481.281 663.861 472.154 661.113 466.504C659.811 463.752 658.798 460.999 658.798 460.13C658.798 459.406 657.785 457.957 656.628 456.943C655.181 455.784 654.458 452.452 654.458 446.657C654.458 439.413 653.879 437.675 650.552 434.633C647.948 432.17 645.923 427.969 644.331 421.884C642.595 414.64 641.438 412.612 638.979 412.322C637.387 412.033 635.073 412.902 633.915 414.061Z" fill="#FAEADE"/>
<path d="M73.6212 435.935C71.3066 437.094 67.5452 438.253 65.3752 438.687C62.3372 439.412 60.7459 441.44 57.7079 447.959C55.6826 452.45 52.9339 458.1 51.9212 460.563C50.7639 462.881 49.4619 467.227 49.0279 469.98C48.5939 472.732 46.7132 477.948 44.8326 481.569C32.9699 504.169 33.9826 500.837 33.8379 522.858C33.8379 549.08 37.7439 561.249 46.4239 561.249C51.0532 561.249 55.6826 550.818 56.6952 537.635C57.4186 528.073 57.5632 527.639 66.5326 517.642C71.4512 511.992 78.1059 503.735 81.1439 499.244L86.6412 490.986L87.0752 466.068L87.6539 441.15L83.8926 437.383C79.6972 433.327 79.5526 433.182 73.6212 435.935Z" fill="#FAEADE"/>
<path d="M804.042 487.081C802.451 488.096 796.086 498.526 793.482 504.031C792.758 505.625 790.444 508.522 788.418 510.406C786.393 512.434 784.657 514.607 784.657 515.331C784.657 516.635 782.198 522.72 778.147 531.557C773.084 542.422 770.19 551.694 770.19 557.054C770.19 560.242 769.178 564.443 767.876 566.326C765.416 570.093 765.706 585.594 768.888 612.395C769.756 620.074 770.046 629.49 769.467 633.257C766.14 658.03 767.731 682.369 773.228 690.481C776.845 695.552 776.7 699.608 772.939 705.693C770.046 710.329 769.901 711.633 771.058 728.293C771.782 737.999 772.216 747.851 772.071 750.313C771.637 756.978 775.688 797.107 777.134 800.004C777.858 801.308 778.87 805.51 779.449 809.131C780.751 817.534 787.261 834.774 791.167 839.554C795.362 844.77 798.111 845.349 808.238 843.031C818.798 840.569 824.006 835.643 830.95 821.301C833.41 816.375 836.592 811.16 838.039 809.856C839.63 808.407 842.234 804.061 843.826 800.149C846.14 795.079 848.455 792.181 852.65 789.863C859.16 786.097 862.777 778.998 862.777 770.016C862.777 766.974 863.79 761.324 865.092 757.412C868.708 745.533 870.3 735.247 871.023 718.007L871.602 701.492L878.112 695.117C881.584 691.495 884.477 688.163 884.477 687.439C884.477 686.86 885.634 685.266 887.081 683.817C892 679.471 895.761 661.507 897.063 635.43C897.642 624.275 897.208 620.798 894.604 613.844C892.868 609.208 890.987 604.862 890.264 603.993C889.685 603.269 888.528 600.226 887.66 597.474C886.792 594.721 884.477 587.767 882.307 582.262C875.942 565.312 870.155 543.437 868.708 530.688C867.406 519.388 866.538 517.794 862.198 517.794C858.726 517.794 849.757 525.617 849.757 528.66C849.757 534.454 843.102 550.535 838.473 555.461C832.542 562.27 830.082 562.56 824.296 557.634L820.1 554.012L819.232 529.094C818.364 502.293 817.062 495.774 811.42 489.689C807.804 485.778 806.646 485.343 804.042 487.081Z" fill="#FAEADE"/>
<path d="M-23.162 672.225C-23.596 673.529 -24.03 676.426 -24.03 678.744C-24.03 681.931 -24.7533 682.946 -26.9233 682.946C-28.5147 682.946 -30.2507 684.104 -30.8293 685.408C-31.2633 686.857 -32.8547 690.624 -34.1567 693.811C-35.6033 696.998 -37.1947 703.662 -37.6287 708.733C-38.2073 713.658 -40.088 722.64 -42.1133 728.58C-47.3213 744.806 -47.6107 747.993 -45.0067 762.045C-41.824 779.865 -40.3773 783.631 -36.3267 785.804C-34.3013 786.819 -32.71 788.267 -32.71 788.847C-32.71 789.426 -31.6973 790.875 -30.54 792.179C-27.936 794.642 -20.992 793.193 -16.652 789.281C-14.1927 787.108 -13.7587 787.108 -10.142 790.006C-7.97199 791.744 -5.80199 793.048 -5.07865 793.048C-2.47465 793.048 0.563343 788.122 0.563343 783.776C0.563343 781.313 1.14201 778.561 1.72068 777.692C2.44401 776.967 4.18001 773.201 5.62668 769.289C8.66468 760.887 7.94135 749.587 3.60135 740.46C2.15468 737.128 -0.0153233 730.608 -0.883324 725.828C-1.89599 721.192 -3.77665 713.513 -5.36799 709.022C-6.81465 704.531 -8.26132 695.839 -8.55065 690.044C-8.98465 681.352 -9.70799 678.31 -12.4567 674.543C-16.218 669.472 -21.7153 668.313 -23.162 672.225Z" fill="#FAEADE"/>
</g>
</g>
</g>
</g>
<defs>
<filter id="filter0_f_633_74" x="-125.691" y="-402.148" width="1277.51" height="1508.8" filterUnits="userSpaceOnUse" color-interpolation-filters="sRGB">
<feFlood flood-opacity="0" result="BackgroundImageFix"/>
<feBlend mode="normal" in="SourceGraphic" in2="BackgroundImageFix" result="shape"/>
<feGaussianBlur stdDeviation="125" result="effect1_foregroundBlur_633_74"/>
</filter>
<clipPath id="clip0_633_74">
<rect width="1024" height="677" fill="white"/>
</clipPath>
</defs>
</svg>
